<svg xmlns="http://www.w3.org/2000/svg" viewBox="0 0 32 32" aria-hidden="true" role="presentation" focusable="false" style="display: block; height: 32px; width: 32px; fill: currentcolor;"><path d="M16 1c5.046 0 9.298 3.397 10.594 8.03a6 6 0 0 1-.33 11.964 11.01 11.01 0 0 1-7.531 6.695l.2-.053a3.001 3.001 0 1 1-.264-2.008A9.003 9.003 0 0 0 25 17.031V12a9 9 0 0 0-17.996-.265L7 12v9H6a6 6 0 0 1-.594-11.971C6.702 4.397 10.954 1 16 1zm0 25a1 1 0 1 0 0 2 1 1 0 0 0 0-2zM5 11.126l-.155.043a4.002 4.002 0 0 0 0 7.662l.155.042v-7.747zm22 0v7.747l.155-.042a4.002 4.002 0 0 0 0-7.662L27 11.126z"></path></svg>