<svg viewBox="0 0 32 32" xmlns="http://www.w3.org/2000/svg" aria-hidden="true" role="presentation" focusable="false" style="display: block; height: 32px; width: 32px; fill: currentcolor;"><path d="m27 5h-4a2.00229 2.00229 0 0 0 -2 2v4h-4v-8a2.002 2.002 0 0 0 -2-2h-4a2.002 2.002 0 0 0 -2 2v8h-4a2.002 2.002 0 0 0 -2 2v16a2.00229 2.00229 0 0 0 2 2h22a2.0026 2.0026 0 0 0 2-2v-22a2.00229 2.00229 0 0 0 -2-2zm-18 24h-4l-.00146-16h4.00146zm6 0h-4v-16l-.00092-.00891-.00054-9.99109h4.00146zm6 0h-4v-16h4zm6 0h-4v-16l-.00073-.007-.00027-5.993h4.001z"></path></svg>