<svg xmlns="http://www.w3.org/2000/svg" viewBox="0 0 32 32" aria-hidden="true" role="presentation" focusable="false" style="display: block; height: 32px; width: 32px; fill: currentcolor;"><path d="M16 1c5.96 0 10.832 4.747 10.996 10.706L27 12c0 3.7-2.03 7.136-5.998 10.297L21 29.333c0 .92-.746 1.667-1.667 1.667h-6.666c-.92 0-1.667-.746-1.667-1.667v-7.035c-3.848-3.064-5.874-6.387-5.995-9.978L5 12C5 5.925 9.925 1 16 1zm2.999 26h-6v2h6v-2zm0-4h-6v2h6v-2zM16 3c-4.97 0-9 4.03-9 8.983l.005.286c.097 2.9 1.794 5.7 5.17 8.408l.412.323.412-.001.001-9.666a3 3 0 0 1 6 0L18.999 21h.412l.432-.337c3.356-2.696 5.046-5.482 5.152-8.36l.005-.288-.003-.266A9 9 0 0 0 16 3zm0 7.333l-.117.007a1 1 0 0 0-.883.993L14.999 21h2L17 11.333a1 1 0 0 0-1-1z"></path></svg>