<svg viewBox="0 0 32 32" xmlns="http://www.w3.org/2000/svg" aria-hidden="true" role="presentation" focusable="false" style="display: block; height: 32px; width: 32px; fill: currentcolor;"><path d="m20 2c1.0543618 0 1.9181651.81587779 1.9945143 1.85073766l.0054857.14926234v2h4c2.6887547 0 4.8818181 2.12230671 4.9953805 4.7831104l.0046195.2168896v14c0 2.6887547-2.1223067 4.8818181-4.7831104 4.9953805l-.2168896.0046195h-20c-2.6887547 0-4.88181811-2.1223067-4.99538049-4.7831104l-.00461951-.2168896v-14c0-2.6887547 2.12230671-4.88181811 4.78311038-4.99538049l.21688962-.00461951h4v-2c0-1.0543618.8158778-1.91816512 1.8507377-1.99451426l.1492623-.00548574zm-17 23c0 1.5976809 1.24891996 2.9036609 2.82372721 2.9949073l.17627279.0050927h20c1.5976809 0 2.9036609-1.24892 2.9949073-2.8237272l.0050927-.1762728v-6h-7v2h-2v-2h-8v2h-2v-2h-7zm23-17h-20c-1.59768088 0-2.90366088 1.24891996-2.99490731 2.8237272l-.00509269.1762728v6h7v-2h2v2h8v-2h2v2h7v-6c0-1.65685425-1.3431458-3-3-3zm-6-4h-8v2h8z"></path></svg>