<svg viewBox="0 0 48 48" xmlns="http://www.w3.org/2000/svg" aria-hidden="true" role="presentation" focusable="false" style="display: block; height: 48px; width: 48px; fill: rgb(227, 28, 95); stroke: currentcolor;"><g><g stroke="none"><path d="M26 6c9.941 0 18 8.059 18 18s-8.059 18-18 18c-1.277 0-2.524-.133-3.726-.386A11.944 11.944 0 0 0 25 34c0-6.627-5.373-12-12-12-1.775 0-3.46.386-4.977 1.077C8.503 13.565 16.368 6 26 6z" fill-opacity=".2"></path><path d="M26 2c12.15 0 22 9.85 22 22s-9.85 22-22 22c-2.643 0-5.177-.466-7.524-1.32a11.978 11.978 0 0 0 2.147-1.412A19.97 19.97 0 0 0 26 44a19.941 19.941 0 0 0 14.368-6.088 17.01 17.01 0 0 0-11.15-7.608l-.383-.069-.835-.14v-2.314l.667-.236a8 8 0 1 0-9.864-4.049 11.822 11.822 0 0 0-2.495-1.034 9.9 9.9 0 0 1-.304-2.172L16 20c0-5.523 4.477-10 10-10s10 4.477 10 10c0 3.592-1.911 6.82-4.876 8.59l-.129.074.09.025a19.03 19.03 0 0 1 10.65 7.657A19.91 19.91 0 0 0 46 24c0-11.046-8.954-20-20-20S6 12.954 6 24l.003.25a12.068 12.068 0 0 0-1.917 1.716A22.461 22.461 0 0 1 4 24C4 11.85 13.85 2 26 2z"></path></g><g fill="none" stroke-width="2"><circle cx="13" cy="34" r="12"></circle><path d="M7 35L11 39 19 31"></path></g></g></svg>