<svg viewBox="0 0 48 48" xmlns="http://www.w3.org/2000/svg" aria-hidden="true" role="presentation" focusable="false" style="display: block; height: 48px; width: 48px; fill: rgb(227, 28, 95); stroke: currentcolor;"><g><g stroke="none"><path d="M26.928 16h-1.857l-4.523 11.942c1.55.107 2.7.793 3.452 2.058 1.237 2.081 2.737 6.414 4.5 13h7.208a1 1 0 0 0 .97-1.243l-.035-.111L26.928 16z" fill-opacity=".2"></path><path d="M41 1v8h-5.878a10.118 10.118 0 0 0 2.387 5.07l.224.25-1.466 1.36C34.533 13.81 33.428 11.493 33.1 9H33a3 3 0 0 0-2.995 2.824L30 12v.816l10.383 27.413a5 5 0 0 1-4.373 6.762l-.302.009H29.5v-2h6.208a3 3 0 0 0 2.863-3.896l-.058-.167L28.309 14H23.69l-5.44 14.362-1.87-.709 5.455-14.403L17 8.414V6a5 5 0 0 1 4.783-4.995L22 1h19zm-8 2H22a3 3 0 0 0-2.995 2.824L19 6v1.585L23.415 12H28a5 5 0 0 1 4.563-4.981l.22-.014L33 7V3zm14 3a1 1 0 1 1 0 2 1 1 0 0 1 0-2zm-8-3h-4v4h4V3zm5 1a1 1 0 1 1 0 2 1 1 0 0 1 0-2zm3-2a1 1 0 1 1 0 2 1 1 0 0 1 0-2z"></path></g><g fill="none" stroke-width="2"><path d="M30 47l-1.587-5M1 42v5m4-5v5m4-5v5m4-5v5m4-5v5m4-5v5m4-5v5m-3.954-19a4 4 0 0 1 3.759 2.632l.064.192L28.413 42H1v-5a1 1 0 0 1 .883-.993L2 36h11.283l1.519-4H1v-4h20.046z"></path></g></g></svg>