<svg viewBox="0 0 48 48" xmlns="http://www.w3.org/2000/svg" aria-hidden="true" role="presentation" focusable="false" style="display: block; height: 48px; width: 48px; fill: rgb(227, 28, 95); stroke: currentcolor;"><g><g stroke="none"><path d="M28 5l.585.005c4.29.076 8.837.984 13.645 2.737l.77.288V35.4l-.008.13a1 1 0 0 1-.47.724l-.116.06L28 42.716l-2-.216V31.414L14.707 19.707 13 19V8.029l.77-.286c4.797-1.75 9.336-2.658 13.62-2.737L28 5z" fill-opacity=".2"></path><path d="M28 1c5.599 0 11.518 1.275 17.755 3.816a2 2 0 0 1 1.239 1.691L47 6.67V35.4a5 5 0 0 1-2.764 4.472l-.205.097L28 47h-3l-1.853-1H25a1 1 0 0 0 1-1h2l15.218-6.858a3 3 0 0 0 1.757-2.351l.019-.194.006-.196V6.669l-.692-.278C38.557 4.128 33.121 3 28 3S17.443 4.128 11.692 6.391L11 6.67 10.999 22 9 23.999V6.669a2 2 0 0 1 1.098-1.786l.147-.067C16.483 2.275 22.401 1 28 1z"></path></g><g fill="none" stroke-width="2"><path d="M2 31.414V45a1 1 0 0 0 1 1h22a1 1 0 0 0 1-1V31.414a1 1 0 0 0-.293-.707l-11-11a1 1 0 0 0-1.414 0l-11 11a1 1 0 0 0-.293.707z"></path><path d="M10 46V35a1 1 0 0 1 1-1h6a1 1 0 0 1 1 1v11"></path></g></g></svg>